<?xml version="1.0" encoding="utf-8"?>
<!-- Generator: Adobe Illustrator 25.2.1, SVG Export Plug-In . SVG Version: 6.00 Build 0)  -->
<svg version="1.1" id="Capa_1" xmlns="http://www.w3.org/2000/svg" xmlns:xlink="http://www.w3.org/1999/xlink" x="0px" y="0px"
	 viewBox="0 0 481.89 311.81" style="enable-background:new 0 0 481.89 311.81;" xml:space="preserve">
<style type="text/css">
	.st0{fill:#2A7FFF;}
	.st1{fill:#1A1A1A;}
	.st2{fill:#FFFFFF;}
</style>
<g id="g83758_4_" transform="translate(-17.991672,4.7875744)">
	<g id="g13929-9-1-8-6-4-1-1-6-1-8-4-9-3-6-1_3_" transform="matrix(0.52633941,0,0,0.52633941,190.73172,26.779453)">
		<path id="path988-2-9-3-2-2-4-1-7-4-2-4-6-9-9-5-5-8-5_3_" class="st0" d="M-21.54,116.37l6.34,6.32
			c3.11,2.49,2.64,3.12,1.39,6.63l-35.74,101.04c-2.1,3.77-3.99,5.02-9.47,5.59c-27.88-0.15-44.55-0.01-54.54,0.11
			c-21.7,0.51-9.52-0.91-0.25-5.43c56.7-21.3,67.1-68.06,27.74-90.45l-69.96,6.37l-15.89,44.48l-4.54,12.19
			c-1.9,3.25-3.21,4.97-7.13-0.21l-32.8-48.19c-0.87-1.5-1.43-3.03-0.27-6l18.54-50.09c6.42-19.75,5.2-15.4,25.36-18.16
			l103.37-14.14l13.79-37.38c1.1-4.52,2.36-3.65,6.61-3.29l15.82,1.33c2.16-0.05,2.59,0.21,3.7,1.88l21.38,32.26
			c1.4,1.62,1.05,2.19,0.38,4.08l-13.39,37.63C-21.81,116.63-21.54,116.37-21.54,116.37L-21.54,116.37z"/>
		<path id="path988-3-7-4-8-1-0-9-9-9-5-6-5-9-8-1-6-8-4-7_3_" class="st0" d="M-241.36,356.25c-3.01-7.24-7.79-13.35-12.29-19.7
			l-30.02,9.13c-2.85,1.05-3.66,1.64-5.71-0.39l-5.49-5.47c-1.47-2.67-0.67-5.06,0.54-8.32l64.5-162.83
			c1.84-4.16,1.98-3.74,5.99-3.06l5.33,2c1.78,0.38,2.34,1.24,3.36,2.62l29.99,40.69c-42.65,109.69-0.68,1.69-42.61,109.87
			l7.81,11.18l99.8-8.51c59.63-7.47,68.55-56.4,48.02-77.78c-0.96-1-1.99-1.95-3.08-2.82c-1.48-3.99,8.84-1.89,11.78-1.04
			l53.3,15.32c9.54,1.57,6.29,4.61,3.79,12.64l-27.24,87.18c-2.85,12.1-13.42,14.79-14.17,15.16l-145.53,22.62l-14.12,38.28
			c-0.82,3.19-1.39,2.8-4.43,2.55l-17.52-1.47c-2.77,0.13-3.1-0.76-4.53-2.93l-19.66-29.67c-2.6-3.02-1.98-4.04-0.73-7.56
			l12.71-35.7L-241.36,356.25z"/>
	</g>
</g>
<path class="st0" d="M222.97,177.37c-1.18,0-2.46-0.03-3.83-0.08c-1.38-0.06-2.75-0.14-4.13-0.25c-1.38-0.11-2.74-0.25-4.09-0.42
	c-1.35-0.17-2.58-0.39-3.71-0.67V119.3c1.12-0.28,2.36-0.51,3.71-0.67c1.35-0.17,2.71-0.31,4.09-0.42c1.38-0.11,2.74-0.2,4.09-0.25
	c1.35-0.06,2.61-0.08,3.79-0.08c3.37,0,6.53,0.25,9.48,0.76c2.95,0.51,5.51,1.36,7.67,2.57c2.16,1.21,3.86,2.8,5.1,4.76
	c1.23,1.97,1.85,4.38,1.85,7.25c0,3.2-0.76,5.83-2.28,7.88c-1.52,2.05-3.54,3.58-6.07,4.59c3.43,1.01,6.15,2.61,8.17,4.8
	s3.03,5.28,3.03,9.27c0,5.84-2.15,10.24-6.45,13.19C239.11,175.89,232.29,177.37,222.97,177.37z M215.3,143.07h8.6
	c2.02,0,3.93-0.14,5.73-0.42c1.8-0.28,3.36-0.79,4.68-1.52c1.32-0.73,2.36-1.69,3.12-2.87s1.14-2.67,1.14-4.47
	c0-1.69-0.39-3.1-1.18-4.26c-0.79-1.15-1.87-2.08-3.24-2.78c-1.38-0.7-2.99-1.22-4.85-1.56c-1.85-0.34-3.82-0.51-5.9-0.51
	c-2.08,0-3.71,0.03-4.89,0.08c-1.18,0.06-2.25,0.14-3.2,0.25V143.07z M215.3,149.64v20.56c0.62,0.06,1.35,0.11,2.19,0.17
	c0.73,0.06,1.59,0.1,2.57,0.13c0.98,0.03,2.12,0.04,3.41,0.04c2.42,0,4.7-0.15,6.87-0.46c2.16-0.31,4.06-0.86,5.69-1.64
	c1.63-0.79,2.94-1.88,3.92-3.29c0.98-1.4,1.47-3.17,1.47-5.31c0-1.91-0.37-3.53-1.1-4.85c-0.73-1.32-1.78-2.37-3.16-3.16
	c-1.38-0.79-3.02-1.35-4.93-1.69c-1.91-0.34-4.05-0.51-6.41-0.51H215.3z"/>
<path class="st0" d="M253.05,155.03c0-3.88,0.56-7.26,1.69-10.16c1.12-2.89,2.61-5.29,4.47-7.2c1.85-1.91,3.99-3.34,6.4-4.3
	c2.42-0.95,4.89-1.43,7.42-1.43c5.9,0,10.42,1.84,13.57,5.52c3.15,3.68,4.72,9.28,4.72,16.81c0,0.34,0,0.77,0,1.31
	c0,0.53-0.03,1.03-0.08,1.47h-30c0.34,4.55,1.66,8.01,3.96,10.37c2.3,2.36,5.9,3.54,10.79,3.54c2.75,0,5.07-0.24,6.95-0.72
	c1.88-0.48,3.3-0.94,4.26-1.39l1.1,6.57c-0.96,0.51-2.63,1.04-5.01,1.6c-2.39,0.56-5.1,0.84-8.13,0.84c-3.82,0-7.12-0.58-9.9-1.73
	c-2.78-1.15-5.07-2.74-6.87-4.76c-1.8-2.02-3.13-4.42-4-7.2C253.49,161.4,253.05,158.35,253.05,155.03z M283.14,150.74
	c0.06-3.54-0.83-6.45-2.65-8.72c-1.83-2.28-4.34-3.41-7.54-3.41c-1.8,0-3.39,0.35-4.76,1.05c-1.38,0.7-2.54,1.62-3.5,2.74
	c-0.96,1.12-1.7,2.42-2.23,3.88c-0.54,1.46-0.88,2.95-1.05,4.47H283.14z"/>
<path class="st0" d="M313.39,132.11c0.67,0,1.45,0.04,2.32,0.13c0.87,0.08,1.73,0.2,2.57,0.34c0.84,0.14,1.61,0.28,2.32,0.42
	c0.7,0.14,1.22,0.27,1.56,0.38l-1.35,6.83c-0.62-0.22-1.64-0.49-3.08-0.8c-1.43-0.31-3.27-0.46-5.52-0.46
	c-1.46,0-2.91,0.15-4.34,0.46c-1.43,0.31-2.37,0.52-2.82,0.63v36.83h-7.84v-41.97c1.85-0.67,4.16-1.31,6.91-1.9
	C306.87,132.41,309.96,132.11,313.39,132.11z"/>
<path class="st0" d="M328.22,125.12c-1.41,0-2.6-0.46-3.58-1.39c-0.98-0.93-1.47-2.18-1.47-3.75c0-1.57,0.49-2.82,1.47-3.75
	c0.98-0.93,2.18-1.39,3.58-1.39c1.4,0,2.6,0.46,3.58,1.39c0.98,0.93,1.47,2.18,1.47,3.75c0,1.57-0.49,2.82-1.47,3.75
	C330.82,124.65,329.63,125.12,328.22,125.12z M332.18,176.86h-7.84v-43.82h7.84V176.86z"/>
<path class="st0" d="M353.42,177.7c-4.83-0.11-8.26-1.15-10.28-3.12c-2.02-1.97-3.03-5.03-3.03-9.19v-52.59l7.84-1.35v52.67
	c0,1.29,0.11,2.36,0.34,3.2c0.22,0.84,0.59,1.52,1.1,2.02c0.5,0.51,1.18,0.88,2.02,1.14c0.84,0.25,1.88,0.46,3.12,0.63L353.42,177.7
	z"/>
<path class="st0" d="M361.76,125.12c-1.41,0-2.6-0.46-3.58-1.39c-0.98-0.93-1.47-2.18-1.47-3.75c0-1.57,0.49-2.82,1.47-3.75
	c0.98-0.93,2.18-1.39,3.58-1.39c1.4,0,2.6,0.46,3.58,1.39c0.98,0.93,1.47,2.18,1.47,3.75c0,1.57-0.49,2.82-1.47,3.75
	C364.36,124.65,363.16,125.12,361.76,125.12z M365.72,176.86h-7.84v-43.82h7.84V176.86z"/>
<path class="st0" d="M412.49,154.95c0,3.48-0.51,6.63-1.52,9.44c-1.01,2.81-2.43,5.22-4.26,7.25c-1.83,2.02-4,3.58-6.53,4.68
	s-5.28,1.64-8.26,1.64c-2.98,0-5.73-0.55-8.26-1.64s-4.71-2.65-6.53-4.68c-1.83-2.02-3.24-4.44-4.26-7.25
	c-1.01-2.81-1.52-5.95-1.52-9.44c0-3.43,0.51-6.56,1.52-9.4c1.01-2.84,2.43-5.27,4.26-7.29c1.82-2.02,4-3.58,6.53-4.68
	s5.28-1.64,8.26-1.64c2.98,0,5.73,0.55,8.26,1.64s4.7,2.65,6.53,4.68c1.83,2.02,3.24,4.45,4.26,7.29
	C411.99,148.39,412.49,151.52,412.49,154.95z M404.32,154.95c0-4.94-1.11-8.86-3.33-11.76c-2.22-2.89-5.24-4.34-9.06-4.34
	s-6.84,1.45-9.06,4.34c-2.22,2.89-3.33,6.81-3.33,11.76c0,4.94,1.11,8.86,3.33,11.76c2.22,2.89,5.24,4.34,9.06,4.34
	s6.84-1.45,9.06-4.34C403.21,163.81,404.32,159.89,404.32,154.95z"/>
<path class="st0" d="M418.14,134.3c1.8-0.45,4.18-0.93,7.16-1.43c2.98-0.51,6.4-0.76,10.28-0.76c3.48,0,6.38,0.49,8.68,1.47
	c2.3,0.98,4.14,2.36,5.52,4.13c1.38,1.77,2.34,3.89,2.91,6.36c0.56,2.47,0.84,5.2,0.84,8.17v24.61h-7.84v-22.92
	c0-2.7-0.18-5-0.55-6.91c-0.37-1.91-0.97-3.46-1.81-4.63c-0.84-1.18-1.97-2.04-3.37-2.57c-1.41-0.53-3.15-0.8-5.22-0.8
	c-0.84,0-1.71,0.03-2.61,0.08c-0.9,0.06-1.76,0.13-2.57,0.21c-0.81,0.08-1.55,0.18-2.19,0.29c-0.65,0.11-1.11,0.2-1.39,0.25v37
	h-7.84V134.3z"/>
</svg>
